# AST/ASF file generated using VICON BodyLanguage
# -----------------------------------------------
:version 1.10
:name VICON
:units
  mass 1.0
  length 0.45
  angle deg
:documentation
   .ast/.asf automatically generated from VICON data using
   VICON BodyBuilder and BodyLanguage model FoxedUp or BRILLIANT.MOD
:root
   order TX TY TZ RX RY RZ
   axis XYZ
   position 0 0 0  
   orientation 0 0 0 
:bonedata
  begin
     id 1 
     name lhipjoint
     direction 0.623415 -0.642378 0.445763 
     length 2.49859 
     axis 0 0 0  XYZ
  end
  begin
     id 2 
     name lfemur
     direction 0.34202 -0.939693 0  
     length 6.69689  
     axis 0 0 20  XYZ
    dof rx ry rz
    limits (-160.0 20.0)
           (-70.0 70.0)
           (-60.0 70.0)
  end
  begin
     id 3 
     name ltibia
     direction 0.34202 -0.939693 0   
     length 7.37574   
     axis 0 0 20   XYZ
    dof rx
    limits (-10.0 170.0)
  end
  begin
     id 4 
     name lfoot
     direction 0.084323 -0.231675 0.969132   
     length 2.09111   
     axis -90 7.62852e-016 20   XYZ
    dof rx rz
    limits (-45.0 90.0)
           (-70.0 20.0)
  end
  begin
     id 5 
     name ltoes
     direction 1.5357e-011 -4.21957e-011 1   
     length 1.04989   
     axis -90 7.62852e-016 20   XYZ
    dof rx
    limits (-90.0 20.0)
  end
  begin
     id 6 
     name rhipjoint
     direction -0.605402 -0.653903 0.45376   
     length 2.45455  
     axis 0 0 0  XYZ 
  end
  begin
     id 7 
     name rfemur
     direction -0.34202 -0.939693 0   
     length 6.64523   
     axis 0 0 -20   XYZ
    dof rx ry rz
    limits (-160.0 20.0)
           (-70.0 70.0)
           (-70.0 60.0)
  end
  begin
     id 8 
     name rtibia
     direction -0.34202 -0.939693 0   
     length 7.3339   
     axis 0 0 -20   XYZ
    dof rx
    limits (-10.0 170.0)
 end
 begin
     id 9 
     name rfoot
     direction -0.120854 -0.332043 0.93549   
     length 2.23135  
     axis -90 -7.62852e-016 -20   XYZ
    dof rx rz
    limits (-45.0 90.0)
           (-20.0 70.0)
  end
  begin
     id 10 
     name rtoes
     direction -1.53563e-011 -4.21914e-011 1   
     length 1.10614   
     axis -90 -7.62852e-016 -20   XYZ
    dof rx
    limits (-90.0 20.0)
  end
  begin
     id 11 
     name lowerback
     direction 0.0319682 0.998615 -0.0417941   
     length 2.02718   
     axis 0 0 0   XYZ
    dof rx ry rz
    limits (-20.0 45.0)
           (-30.0 30.0)
           (-30.0 30.0)
  end
  begin
     id 12 
     name upperback
     direction 7.63181e-005 0.995808 0.0914691   
     length 1.97539   
     axis 0 0 0   XYZ
    dof rx ry rz
    limits (-20.0 45.0)
           (-30.0 30.0)
           (-30.0 30.0)
  end
  begin
     id 13 
     name thorax
     direction -0.016423 0.993627 0.111514   
     length 2.00349   
     axis 0 0 0   XYZ
    dof rx ry rz
    limits (-20.0 45.0)
           (-30.0 30.0)
           (-30.0 30.0)
  end
  begin
     id 14 
     name lowerneck
     direction -0.174763 0.981668 -0.0760716   
     length 1.71436   
     axis 0 0 0   XYZ
    dof rx ry rz
    limits (-20.0 45.0)
           (-30.0 30.0)
           (-30.0 30.0)
  end
  begin
     id 15 
     name upperneck
     direction 0.345458 0.934587 -0.0848868   
     length 1.72805   
     axis 0 0 0   XYZ
    dof rx ry rz
    limits (-20.0 45.0)
           (-30.0 30.0)
           (-30.0 30.0)
  end
  begin
     id 16
     name head
     direction 0.13001 0.989848 -0.0574291  
     length 1.767  
     axis 0 0 0   XYZ
    dof rx ry rz
    limits (-20.0 45.0)
           (-30.0 30.0)
           (-30.0 30.0)
  end
  begin
     id 17 
     name lclavicle
     direction 0.952951 0.290122 0.0878234  
     length 3.54654  
     axis 0 0 0   XYZ
    dof ry rz
    limits (-20.0 10.0)
           (0.0 20.0)
  end
  begin
     id 18 
     name lhumerus
     direction 1 -4.48957e-011 -4.56525e-028   
     length 5.19807   
     axis 180 -30 -90   XYZ
    dof rx ry rz
    limits (-60.0 90.0)
           (-90.0 90.0)
           (-90.0 90.0)
  end
  begin
     id 19
     name lradius
     direction 1 -4.48979e-011 -2.0317e-027   
     length 3.0937   
     axis 180 -30 -90   XYZ
    dof rx
    limits (-10.0 170.0)
  end
  begin
     id 20
     name lwrist
     direction 1 -4.48953e-011 -3.05809e-027   
     length 1.54685   
     axis 8.48514e-016 90 90   XYZ
    dof ry
    limits (-180.0 0.0)
 end
  begin
     id 21 
     name lhand
     direction 1 -4.48952e-011 -6.11639e-027   
     length 0.672632   
     axis 3.9013e-015 90 90   XYZ
    dof rx rz
    limits (-90.0 90.0)
           (-45.0 45.0)
  end
  begin
     id 22 
     name lfingers
     direction 1 -4.48925e-011 -1.22426e-026   
     length 0.542293   
     axis 7.80276e-015 90 90   XYZ
    dof rx
    limits (0.0 90.0)
  end
  begin
     id 23
     name lthumb
     direction 0.707107 -6.3486e-011 0.707107   
     length 0.778628   
     axis -90 45 5.37419e-014   XYZ
    dof rx rz
    limits (-45.0 45.0)
           (-45.0 45.0)
  end
  begin
     id 24 
     name rclavicle
     direction -0.960732 0.273675 -0.0457849   
     length 3.52079  
     axis 0 0 0   XYZ 
    dof ry rz
    limits (-10.0 20.0)
           (-20.0 0.0)
  end
  begin
     id 25 
     name rhumerus
     direction -1 -4.48976e-011 -1.63613e-027  
     length 5.45222   
     axis 180 30 90   XYZ
    dof rx ry rz
    limits (-90.0 60.0)
           (-90.0 90.0)
           (-90.0 90.0)
  end
  begin
     id 26 
     name rradius
     direction -1 -4.48957e-011 -7.00033e-028   
     length 3.01284   
     axis 180 30 90   XYZ
    dof rx
    limits (-10.0 170.0)
  end
  begin
     id 27 
     name rwrist
     direction -1 -4.48983e-011 -3.05543e-027   
     length 1.50642   
     axis 8.48514e-016 -90 -90   XYZ
    dof ry
    limits (-180.0 0.0)
  end
  begin
     id 28
     name rhand
     direction -1 -4.48984e-011 -6.11072e-027   
     length 0.622296   
     axis 3.9013e-015 -90 -90   XYZ
    dof rx rz
    limits (-90.0 90.0)
           (-45.0 45.0)
  end
  begin
     id 29
     name rfingers
     direction -1 -4.48865e-011 -1.22637e-026   
     length 0.501711   
     axis 7.80276e-015 -90 -90   XYZ
    dof rx
    limits (0.0 90.0)
  end
  begin
     id 30
     name rthumb
     direction -0.707107 -6.34932e-011 0.707107   
     length 0.72036   
     axis -90 -45 -5.37419e-014   XYZ
    dof rx rz
    limits (-45.0 45.0)
           (-45.0 45.0)
  end
:hierarchy
  begin
    root lhipjoint rhipjoint lowerback
    lhipjoint lfemur
    lfemur ltibia
    ltibia lfoot
    lfoot ltoes
    rhipjoint rfemur
    rfemur rtibia
    rtibia rfoot
    rfoot rtoes
    lowerback upperback
    upperback thorax
    thorax lowerneck lclavicle rclavicle
    lowerneck upperneck
    upperneck head
    lclavicle lhumerus
    lhumerus lradius
    lradius lwrist
    lwrist lhand lthumb
    lhand lfingers
    rclavicle rhumerus
    rhumerus rradius
    rradius rwrist
    rwrist rhand rthumb
    rhand rfingers
  end

#!OML:ASF H:\Not Pregnant\Project 1\Capture day 1\Session 1\non-pregnant.ASF
:FULLY-SPECIFIED
:DEGREES
363
root 4.02905 19.61 13.269 -167.733 13.0907 -176.267
lowerback -1.73263 4.77166 6.54325
upperback -7.05373 6.95032 -1.47295
thorax -5.47927 3.28452 -5.35667
lowerneck 16.6998 -7.02931 -30.697
upperneck -3.59794 -19.6831 40.5272
head 4.00435 -12.9287 20.147
rclavicle 4.55962e-015 -7.95139e-016
rhumerus -33.9599 -4.12988 -83.4304
rradius 31.9788
rwrist 22.7105
rhand -9.96714 -1.87937
rfingers 7.12502
rthumb 16.0153 -31.2374
lclavicle 4.55962e-015 -7.95139e-016
lhumerus -44.4896 -2.96926 84.1142
lradius 30.255
lwrist 24.7796
lhand -13.1611 -8.50527
lfingers 7.12502
lthumb 12.9379 21.0736
rfemur -9.17309 2.54871 22.2585
rtibia 39.0171
rfoot 37.3575 20.2679
rtoes 1.12094
lfemur -46.0337 2.4832 -20.9483
ltibia 54.462
lfoot -19.733 -3.11211
ltoes -18.0132
364
root 4.03105 19.644 13.1715 -167.968 13.3205 -176.724
lowerback -1.60315 4.70915 5.89846
upperback -6.98851 6.84049 -1.57841
thorax -5.54648 3.25256 -5.12153
lowerneck 16.671 -6.98405 -30.5817
upperneck -3.7279 -19.5778 40.6071
head 3.92848 -12.8919 20.1909
rclavicle -5.84675e-014 -1.11319e-014
rhumerus -34.1841 -5.64486 -82.7311
rradius 31.3818
rwrist 23.1341
rhand -10.0949 -2.26882
rfingers 7.12502
rthumb 15.8923 -31.6367
lclavicle -5.84675e-014 -1.11319e-014
lhumerus -44.4565 -3.73044 84.4755
lradius 30.6087
lwrist 24.7519
lhand -13.2804 -9.18969
lfingers 7.12502
lthumb 12.8229 20.3965
rfemur -11.0836 2.554 21.7099
rtibia 43.0494
rfoot 38.5864 20.2742
rtoes 2.51226
lfemur -45.0431 2.58913 -21.5178
ltibia 53.7649
lfoot -19.8647 -3.05742
ltoes -18.1492
365
root 4.03356 19.6759 13.0778 -168.238 13.5465 -177.257
lowerback -1.42572 4.63621 5.1916
upperback -6.91493 6.7139 -1.71207
thorax -5.63628 3.21356 -4.88506
lowerneck 16.6248 -6.93554 -30.4636
upperneck -3.86242 -19.4615 40.6952
head 3.85125 -12.8497 20.2397
rclavicle -4.69877e-014 2.0276e-014
rhumerus -34.4068 -7.1144 -82.042
rradius 30.8126
rwrist 23.5676
rhand -10.2073 -2.66362
rfingers 7.12502
rthumb 15.784 -32.0401
lclavicle -4.69877e-014 2.0276e-014
lhumerus -44.408 -4.44113 84.772
lradius 30.9984
lwrist 24.8883
lhand -13.3655 -9.83372
lfingers 7.12502
lthumb 12.7409 19.7576
rfemur -13.0243 2.53495 21.0941
rtibia 47.1468
rfoot 39.5539 20.315
rtoes 3.88109
lfemur -44.0343 2.66881 -22.1582
ltibia 53.0336
lfoot -19.9512 -2.99928
ltoes -18.274
366
root 4.03656 19.7059 12.9876 -168.547 13.7582 -177.846
lowerback -1.19671 4.55394 4.44725
upperback -6.83121 6.57187 -1.86956
thorax -5.74663 3.16745 -4.65596
lowerneck 16.561 -6.88402 -30.3448
upperneck -3.99354 -19.3388 40.7912
head 3.77681 -12.8046 20.2929
rclavicle 9.077e-014 -1.35174e-014
rhumerus -34.6363 -8.5221 -81.374
rradius 30.283
rwrist 23.9888
rhand -10.2983 -3.01952
rfingers 7.12502
rthumb 15.6964 -32.4029
lclavicle 9.077e-014 -1.35174e-014
lhumerus -44.3363 -5.09711 84.9986
lradius 31.414
lwrist 25.1837
lhand -13.4072 -10.3804
lfingers 7.12502
lthumb 12.7006 19.2134
rfemur -14.9761 2.4791 20.4389
rtibia 51.2665
rfoot 40.2602 20.3986
rtoes 5.1649
lfemur -42.9999 2.72699 -22.8484
ltibia 52.2685
lfoot -20.0006 -2.94473
ltoes -18.3887
367
root 4.03994 19.7348 12.9 -168.891 13.9407 -178.472
lowerback -0.921485 4.46144 3.68932
upperback -6.73961 6.41348 -2.04271
thorax -5.87543 3.11335 -4.43806
lowerneck 16.67 -10.7501 -31.4193
upperneck -1.35523 -18.663 40.111
head 4.61189 -10.3534 20.1713
rclavicle 1.04362e-015 -1.11319e-014
rhumerus -34.87 -9.86515 -80.7234
rradius 29.7672
rwrist 24.4134
rhand -10.3954 -3.32137
rfingers 7.12502
rthumb 15.6028 -32.7121
lclavicle 1.04362e-015 -1.11319e-014
lhumerus -44.2403 -5.68985 85.1593
lradius 31.8454
lwrist 25.6311
lhand -13.4057 -10.867
lfingers 7.12502
lthumb 12.7021 18.7267
rfemur -16.9196 2.37647 19.7673
rtibia 55.3655
rfoot 40.6866 20.5189
rtoes 6.34849
lfemur -41.9366 2.76704 -23.5692
ltibia 51.4695
lfoot -20.0315 -2.90103
ltoes -18.4872
368
root 4.04347 19.763 12.8145 -169.263 14.0856 -179.105
lowerback -0.604167 4.35925 2.94795
upperback -6.64106 6.23989 -2.21998
thorax -6.01931 3.051 -4.23515
lowerneck 16.5923 -10.7126 -31.3321
upperneck -1.45417 -18.5447 40.2184
head 4.5568 -10.2868 20.2345
rclavicle -3.2551e-014 -2.46493e-014
rhumerus -35.1164 -11.1235 -80.0912
rradius 29.2765
rwrist 24.8253
rhand -10.4883 -3.56615
rfingers 7.12502
rthumb 15.5133 -32.9638
lclavicle -3.2551e-014 -2.46493e-014
lhumerus -44.1135 -6.20668 85.2576
lradius 32.2795
lwrist 26.2144
lhand -13.363 -11.2233
lfingers 7.12502
lthumb 12.7433 18.3678
rfemur -18.8387 2.22101 19.1103
rtibia 59.4047
rfoot 40.7261 20.6359
rtoes 7.11114
lfemur -40.8434 2.7971 -24.292
ltibia 50.6395
lfoot -20.0488 -2.88107
ltoes -18.561
369
root 4.04701 19.791 12.73 -169.659 14.1897 -179.729
lowerback -0.256202 4.24951 2.24116
upperback -6.53445 6.05373 -2.39642
thorax -6.16882 2.9813 -4.05048
lowerneck 16.5151 -10.6691 -31.2594
upperneck -1.54061 -18.4246 40.3202
head 4.50508 -10.2196 20.2991
rclavicle 3.40419e-014 1.90833e-014
rhumerus -35.3776 -12.2893 -79.4806
rradius 28.8171
rwrist 25.2173
rhand -10.5648 -3.79201
rfingers 7.12502
rthumb 15.4397 -33.1954
lclavicle 3.40419e-014 1.90833e-014
lhumerus -43.9553 -6.6415 85.2954
lradius 32.7095
lwrist 26.9174
lhand -13.2748 -11.4742
lfingers 7.12502
lthumb 12.8283 18.1116
rfemur -20.7183 2.01185 18.4822
rtibia 63.3521
rfoot 40.2522 20.7423
rtoes 7.25024
lfemur -39.7196 2.82582 -25.0024
ltibia 49.7836
lfoot -20.0591 -2.8923
ltoes -18.6133
